<?xml version="1.0" standalone="no"?>
<!DOCTYPE svg PUBLIC "-//W3C//DTD SVG 20010904//EN"
 "http://www.w3.org/TR/2001/REC-SVG-20010904/DTD/svg10.dtd">
<svg version="1.0" xmlns="http://www.w3.org/2000/svg"
 width="288.000000pt" height="288.000000pt" viewBox="0 0 288.000000 288.000000"
 preserveAspectRatio="xMidYMid meet">
<metadata>
Created by potrace 1.14, written by Peter Selinger 2001-2017
</metadata>
<g transform="translate(0.000000,288.000000) scale(0.100000,-0.100000)"
fill="#000000" stroke="none">
<path d="M1807 2535 c-21 -8 -91 -16 -155 -19 -116 -4 -252 -30 -340 -63 -49
-19 -69 -51 -51 -85 14 -25 7 -31 -61 -53 -79 -25 -234 -107 -312 -165 -63
-46 -67 -51 -57 -74 11 -22 6 -30 -63 -98 -73 -72 -153 -170 -178 -218 -11
-20 -11 -26 2 -34 13 -8 10 -21 -23 -90 -62 -133 -119 -332 -119 -416 0 -27 3
-30 34 -30 32 0 33 -1 39 -50 24 -202 118 -386 266 -522 103 -93 156 -123 329
-183 9 -3 6 -16 -10 -50 -34 -70 -61 -70 -185 -1 l-100 55 -101 -7 -100 -7
-17 34 c-16 35 -16 36 7 54 89 73 75 187 -43 332 -65 80 -254 245 -282 245 -6
0 -8 -51 -4 -147 7 -188 34 -297 97 -387 36 -53 87 -79 143 -74 39 4 40 3 59
-40 l20 -44 -37 -38 -37 -38 73 -51 c65 -46 74 -50 89 -36 9 8 41 17 71 21 52
6 58 4 130 -39 l74 -46 108 23 c58 12 108 24 110 27 11 12 98 152 111 176 11
23 27 32 83 46 142 38 236 106 285 204 59 121 49 248 -29 350 -19 25 -31 49
-26 54 4 4 31 5 58 1 49 -7 50 -8 47 -40 -5 -50 24 -134 63 -179 46 -54 103
-80 211 -98 128 -21 253 -68 337 -127 23 -17 28 -17 33 -4 9 23 -31 133 -77
211 -52 90 -143 208 -183 238 -103 79 -212 94 -319 44 -47 -21 -67 -25 -103
-20 -24 3 -44 8 -44 12 1 3 27 29 60 56 81 69 317 300 366 358 l41 49 39 -21
c70 -37 71 -37 50 -60 -51 -57 33 -175 185 -260 l39 -22 0 58 c0 156 -77 283
-162 266 -18 -3 -37 2 -59 18 l-32 22 38 20 38 19 22 -28 c33 -42 102 -38 201
10 41 21 74 42 74 47 0 16 -127 71 -174 76 -53 6 -103 -17 -112 -52 -4 -18
-22 -32 -62 -50 -30 -14 -57 -23 -59 -21 -2 2 21 33 51 68 60 71 27 55 513
259 l101 42 -23 51 c-43 96 -48 106 -59 106 -6 0 -114 -43 -241 -96 -216 -90
-256 -105 -329 -119 -16 -4 -43 -21 -60 -40 -29 -31 -36 -33 -121 -40 l-90 -7
157 158 c168 171 201 220 213 319 12 89 -30 185 -79 185 -12 0 -40 13 -62 29
-79 57 -202 77 -287 46z m204 -30 c24 -9 55 -24 69 -34 l24 -19 -142 -214
c-78 -117 -142 -217 -142 -221 0 -32 45 23 164 204 77 115 143 212 148 215 4
3 18 2 29 -1 47 -15 64 -136 32 -230 -15 -44 -49 -83 -284 -317 -147 -148
-270 -268 -273 -268 -3 0 -1 12 4 26 13 33 13 84 0 84 -5 0 -10 -10 -10 -23 0
-12 -9 -40 -19 -60 -14 -27 -16 -39 -8 -42 7 -2 55 -16 108 -30 92 -26 98 -26
128 -10 32 16 32 16 22 -4 -9 -17 -3 -28 40 -76 l52 -56 -23 -24 c-33 -35 -52
-31 -101 22 l-43 47 -140 31 c-180 39 -185 44 -157 160 12 47 16 84 11 89 -12
12 -28 -30 -42 -114 -10 -60 -10 -71 5 -94 10 -14 32 -32 49 -39 l31 -13 -74
-68 c-72 -66 -75 -67 -117 -62 -61 8 -65 12 -57 63 5 35 4 44 -7 41 -16 -6
-35 -95 -22 -107 16 -16 160 -41 233 -41 55 0 78 5 112 25 50 28 69 31 69 11
0 -8 19 -27 43 -43 49 -33 58 -64 25 -87 -30 -21 -84 -20 -136 4 -39 18 -58
19 -245 13 -198 -6 -202 -5 -221 16 -11 12 -22 40 -25 62 -8 51 -27 47 -24 -6
3 -52 31 -89 74 -95 22 -3 30 -8 21 -13 -25 -17 -62 -106 -63 -154 -5 -261 7
-312 89 -364 57 -36 103 -45 153 -30 78 23 129 88 129 163 0 137 -178 192
-235 72 -21 -45 -19 -68 11 -103 25 -30 64 -42 64 -21 0 6 -5 10 -10 10 -21 0
-50 41 -50 70 0 76 103 109 160 52 59 -59 45 -149 -31 -199 -33 -22 -47 -25
-93 -21 -129 11 -203 148 -142 266 21 40 82 100 126 122 118 60 287 -13 349
-150 23 -50 28 -150 11 -210 -49 -176 -303 -294 -530 -246 -298 63 -543 352
-585 689 -7 57 -8 57 -41 57 -33 0 -42 12 -26 36 12 19 138 26 266 15 126 -11
146 -7 146 29 0 10 -29 41 -67 71 l-66 53 32 7 c94 19 50 77 -90 119 -36 11
-78 20 -92 20 -14 0 -28 4 -32 10 -3 5 11 42 31 81 34 69 35 73 18 86 -13 9
-15 16 -7 24 16 16 104 -12 177 -56 90 -54 94 -49 40 50 -20 36 -34 69 -31 72
13 12 162 -31 236 -68 92 -46 117 -49 133 -14 9 21 7 30 -16 65 -51 78 -168
191 -229 221 -71 36 -80 54 -43 86 35 30 53 29 153 -6 99 -34 201 -93 270
-155 52 -47 79 -56 101 -34 39 39 -32 186 -151 312 -54 57 -54 58 -30 67 45
17 57 9 100 -59 69 -110 193 -236 193 -196 0 3 -31 39 -69 80 -80 86 -135 165
-159 229 -21 57 -13 66 83 94 99 28 185 41 295 42 54 0 110 6 130 14 48 18
157 18 211 0z m-780 -282 c67 -69 111 -133 145 -209 39 -89 20 -97 -66 -25
-80 67 -167 114 -274 149 l-88 29 46 27 c47 28 167 86 176 86 3 0 31 -26 61
-57z m-312 -212 c74 -38 239 -225 227 -257 -3 -8 -9 -14 -14 -12 -147 76 -212
98 -324 113 -58 7 -59 3 -18 -71 16 -30 28 -54 25 -54 -2 0 -37 14 -78 30 -42
17 -81 30 -87 30 -6 0 -1 15 12 33 37 53 190 207 205 207 8 0 31 -9 52 -19z
m1061 -329 c0 -15 -78 -84 -88 -78 -5 3 -29 -1 -53 -10 -41 -15 -48 -15 -101
1 -32 9 -58 20 -58 24 0 26 44 42 151 55 145 17 149 18 149 8z m435 -24 c40
-12 40 -12 -50 -19 -49 -4 -92 -6 -94 -4 -2 3 2 11 9 20 15 18 79 20 135 3z
m43 -50 c-6 -18 -86 -47 -129 -47 -21 -1 -42 5 -49 14 -24 29 8 41 118 44 47
1 63 -2 60 -11z m-1803 -79 c55 -15 155 -60 155 -70 0 -5 -22 -11 -50 -15 -27
-4 -50 -12 -49 -18 0 -6 34 -38 75 -70 40 -33 74 -62 74 -66 0 -3 -82 -5 -182
-3 -101 2 -186 3 -190 3 -8 0 16 105 43 188 20 59 22 62 52 62 18 0 50 -5 72
-11z m1012 -56 c43 -9 82 -19 86 -23 13 -12 -60 -63 -79 -56 -9 4 -33 -3 -52
-15 -31 -18 -45 -20 -104 -14 l-68 7 57 58 c32 32 63 58 70 59 7 0 47 -6 90
-16z m653 -13 c28 -30 60 -106 60 -144 0 -13 -13 2 -36 40 -19 32 -43 68 -53
79 -43 51 -45 55 -21 55 12 0 35 -14 50 -30z m-51 -37 c34 -41 101 -157 101
-177 0 -11 -64 34 -109 76 -53 52 -76 100 -61 128 15 29 24 25 69 -27z m-771
-228 c2 -1 -7 -19 -19 -38 -22 -33 -26 -35 -94 -39 -84 -6 -137 -30 -188 -87
-20 -23 -39 -41 -42 -41 -9 0 -5 72 6 111 7 21 26 55 42 75 l31 37 130 -7 c72
-4 132 -9 134 -11z m508 -114 c55 -25 113 -78 173 -159 45 -62 131 -207 131
-224 0 -4 -46 39 -102 96 -119 119 -226 189 -360 237 -49 18 -87 33 -85 35 2
2 21 10 43 18 56 21 151 19 200 -3z m-192 -61 c14 -5 32 -41 61 -123 23 -64
40 -119 37 -121 -8 -9 -83 34 -110 62 -37 40 -62 101 -62 155 0 47 0 47 28 41
15 -4 36 -10 46 -14z m-1385 -250 c120 -252 125 -269 83 -270 -32 0 -83 32
-111 71 -42 57 -78 176 -91 299 -11 109 -13 166 -6 159 3 -3 59 -119 125 -259z
m24 159 c96 -89 171 -192 187 -259 10 -43 10 -54 -7 -86 -10 -21 -27 -43 -39
-51 -20 -13 -25 -5 -134 229 -62 134 -115 247 -118 251 -11 21 39 -17 111 -84z
m1517 22 c72 -38 150 -99 227 -178 104 -106 109 -119 30 -83 -53 25 -166 58
-257 75 -22 4 -30 18 -63 112 -20 59 -37 111 -37 115 0 8 32 -5 100 -41z"/>
<path d="M1769 2477 c-79 -53 -87 -141 -18 -210 38 -38 41 -39 94 -35 65 6
109 40 125 98 32 118 -100 214 -201 147z m116 -16 c17 -9 38 -34 48 -54 50
-100 -75 -194 -162 -121 -60 50 -48 149 22 179 41 18 55 18 92 -4z"/>
<path d="M1807 2430 c-31 -45 13 -95 59 -65 39 25 30 68 -17 80 -21 5 -30 2
-42 -15z"/>
</g>
</svg>
